<?xml version="1.0" encoding="UTF-8"?><svg id="Layer_1" xmlns="http://www.w3.org/2000/svg" viewBox="0 0 2548 535"><defs><style>.cls-1{fill:#fff;}.cls-2{font-family:Manrope-Regular, Manrope;font-size:283.35px;font-variation-settings:'wght' 400;}.cls-3{stroke-width:0px;}</style></defs><text class="cls-2" transform="translate(453.5 353.21)"><tspan x="0" y="0">miche</tspan><tspan class="cls-1" x="797.2" y="0">ll</tspan><tspan x="929.52" y="0">e viet</tspan></text><path class="cls-3" d="m1365.09,108.37c3.98,0,7.31.97,9.99,2.9,2.67,1.93,4.01,5.46,4.01,10.58,0,3.53-.71,7.74-2.13,12.63-1.42,4.89-3.36,10.21-5.8,15.96-2.45,5.75-5.32,11.78-8.62,18.09-3.3,6.31-6.86,12.6-10.67,18.86-3.81,6.26-7.8,12.35-11.95,18.27-4.16,5.92-8.28,11.38-12.38,16.39-8.19,10.13-15.28,18.66-21.25,25.6-5.97,6.94-11.12,12.83-15.45,17.67-4.33,4.84-7.97,8.76-10.92,11.78-2.96,3.02-5.58,5.61-7.85,7.77-2.28,2.16-4.38,4.13-6.31,5.89-1.94,1.77-3.93,3.73-5.97,5.89-.91,4.33-1.34,8.45-1.28,12.38.06,3.93.09,7.54.09,10.84,0,9.9,1.59,17.24,4.78,22.02,3.18,4.78,7.68,7.17,13.49,7.17,3.87,0,7.77-.99,11.69-2.98,3.93-1.99,7.82-4.58,11.69-7.77,3.87-3.18,7.62-6.8,11.27-10.84,3.64-4.04,7.08-8.14,10.33-12.29,3.24-4.15,6.17-8.16,8.79-12.03,2.62-3.87,4.89-7.22,6.83-10.07l6.31,4.78c-.34.46-1.45,2.25-3.33,5.38-1.88,3.13-4.35,6.91-7.42,11.35-3.07,4.44-6.72,9.19-10.92,14.25-4.21,5.06-8.76,9.76-13.65,14.08-4.9,4.33-10.04,7.91-15.45,10.75-5.41,2.85-10.9,4.27-16.47,4.27-4.67,0-9.13-.88-13.4-2.65-4.27-1.76-8.02-4.55-11.27-8.36-3.24-3.81-5.86-8.68-7.85-14.6-1.99-5.91-2.99-13.03-2.99-21.33,0-10.35,1.22-21.2,3.67-32.52,2.45-11.32,5.77-22.7,9.98-34.14,4.21-11.44,9.16-22.73,14.85-33.88,5.69-11.15,11.75-21.76,18.18-31.83,6.43-10.07,13.14-19.4,20.14-28,7-8.59,13.88-16.02,20.65-22.28,6.77-6.26,13.28-11.15,19.54-14.68,6.26-3.53,11.95-5.29,17.07-5.29Zm-102.24,173.08c9.67-10.01,19.03-20.17,28.08-30.47,9.05-10.3,17.52-20.48,25.43-30.55,7.91-10.07,15.16-19.86,21.76-29.36,6.6-9.5,12.23-18.46,16.9-26.88,4.66-8.42,8.31-16.1,10.92-23.04,2.62-6.94,3.93-12.91,3.93-17.92,0-.91-.46-2.13-1.37-3.67-.91-1.54-1.99-2.31-3.24-2.31-3.53,0-8.19,2.33-14,7-5.8,4.67-12.09,11.01-18.86,19.03-6.77,8.03-13.77,17.39-20.99,28.08-7.23,10.7-14.03,22.13-20.4,34.31-6.37,12.18-12.06,24.75-17.07,37.72-5.01,12.97-8.71,25.66-11.1,38.06Z"/><path class="cls-3" d="m1461.02,108.37c3.98,0,7.31.97,9.99,2.9,2.67,1.93,4.01,5.46,4.01,10.58,0,3.53-.71,7.74-2.13,12.63-1.42,4.89-3.36,10.21-5.8,15.96-2.45,5.75-5.32,11.78-8.62,18.09-3.3,6.31-6.86,12.6-10.67,18.86-3.81,6.26-7.8,12.35-11.95,18.27-4.16,5.92-8.28,11.38-12.38,16.39-8.19,10.13-15.28,18.66-21.25,25.6-5.97,6.94-11.12,12.83-15.45,17.67-4.33,4.84-7.97,8.76-10.92,11.78-2.96,3.02-5.58,5.61-7.85,7.77-2.28,2.16-4.38,4.13-6.31,5.89-1.94,1.77-3.93,3.73-5.97,5.89-.91,4.33-1.34,8.45-1.28,12.38.06,3.93.09,7.54.09,10.84,0,9.9,1.59,17.24,4.78,22.02,3.18,4.78,7.68,7.17,13.49,7.17,3.87,0,7.77-.99,11.69-2.98,3.93-1.99,7.82-4.58,11.69-7.77,3.87-3.18,7.62-6.8,11.27-10.84,3.64-4.04,7.08-8.14,10.33-12.29,3.24-4.15,6.17-8.16,8.79-12.03,2.62-3.87,4.89-7.22,6.83-10.07l6.31,4.78c-.34.46-1.45,2.25-3.33,5.38-1.88,3.13-4.35,6.91-7.42,11.35-3.07,4.44-6.72,9.19-10.92,14.25-4.21,5.06-8.76,9.76-13.65,14.08-4.9,4.33-10.04,7.91-15.45,10.75-5.41,2.85-10.9,4.27-16.47,4.27-4.67,0-9.13-.88-13.4-2.65-4.27-1.76-8.02-4.55-11.27-8.36-3.24-3.81-5.86-8.68-7.85-14.6-1.99-5.91-2.99-13.03-2.99-21.33,0-10.35,1.22-21.2,3.67-32.52,2.45-11.32,5.77-22.7,9.98-34.14,4.21-11.44,9.16-22.73,14.85-33.88,5.69-11.15,11.75-21.76,18.18-31.83,6.43-10.07,13.14-19.4,20.14-28,7-8.59,13.88-16.02,20.65-22.28,6.77-6.26,13.28-11.15,19.54-14.68,6.26-3.53,11.95-5.29,17.07-5.29Zm-102.24,173.08c9.67-10.01,19.03-20.17,28.08-30.47,9.05-10.3,17.52-20.48,25.43-30.55,7.91-10.07,15.16-19.86,21.76-29.36,6.6-9.5,12.23-18.46,16.9-26.88,4.66-8.42,8.31-16.1,10.92-23.04,2.62-6.94,3.93-12.91,3.93-17.92,0-.91-.46-2.13-1.37-3.67-.91-1.54-1.99-2.31-3.24-2.31-3.53,0-8.19,2.33-14,7-5.8,4.67-12.09,11.01-18.86,19.03-6.77,8.03-13.77,17.39-20.99,28.08-7.23,10.7-14.03,22.13-20.4,34.31-6.37,12.18-12.06,24.75-17.07,37.72-5.01,12.97-8.71,25.66-11.1,38.06Z"/></svg>